<?xml version="1.0" encoding="iso-8859-1"?>
<!-- Generator: Adobe Illustrator 21.1.0, SVG Export Plug-In . SVG Version: 6.00 Build 0)  -->
<svg version="1.1" id="JP" xmlns="http://www.w3.org/2000/svg" xmlns:xlink="http://www.w3.org/1999/xlink" x="0px" y="0px"
	 width="140.9502px" height="40px" viewBox="0 0 140.9502 40" enable-background="new 0 0 140.9502 40" xml:space="preserve">
<g>
	<g>
		<g>
			<path fill="#A6A6A6" d="M131.4207,0H9.5349c-0.3667,0-0.729,0-1.0948,0.002c-0.3062,0.002-0.6099,0.0078-0.919,0.0127
				C6.8556,0.0312,6.1818,0.0723,5.5172,0.1914c-0.6694,0.1172-1.2915,0.3174-1.9009,0.627
				C3.0176,1.125,2.4707,1.5234,1.9976,1.9971c-0.4785,0.4736-0.875,1.0225-1.1782,1.6211c-0.311,0.6084-0.5083,1.2334-0.625,1.9033
				c-0.1206,0.6621-0.1621,1.332-0.1792,2.002C0.0059,7.8301,0.0049,8.1377,0,8.4443c0,0.3623,0,0.7256,0,1.0918v20.9287
				c0,0.3692,0,0.7305,0,1.0938c0.0049,0.3105,0.0059,0.6113,0.0151,0.9219c0.0171,0.6699,0.0586,1.3398,0.1792,2.0019
				c0.1167,0.6699,0.314,1.2979,0.625,1.9043c0.3032,0.5957,0.6997,1.1446,1.1782,1.6143c0.4731,0.4775,1.02,0.875,1.6187,1.1787
				c0.6094,0.3125,1.2315,0.5098,1.9009,0.6308c0.6646,0.1192,1.3384,0.1583,2.0039,0.1768
				c0.3091,0.0068,0.6128,0.0107,0.919,0.0107C8.8058,40,9.1682,40,9.5349,40h121.8858c0.3594,0,0.7246,0,1.084-0.002
				c0.3047,0,0.6172-0.0039,0.9219-0.0107c0.6699-0.0185,1.3418-0.0576,2-0.1768c0.6699-0.121,1.2929-0.3183,1.9082-0.6308
				c0.5976-0.3037,1.1445-0.7012,1.6172-1.1787c0.4765-0.4697,0.873-1.0186,1.1816-1.6143
				c0.3066-0.6064,0.5059-1.2344,0.6191-1.9043c0.1231-0.6621,0.1621-1.332,0.1856-2.0019
				c0.0039-0.3106,0.0039-0.6114,0.0039-0.9219c0.0078-0.3633,0.0078-0.7246,0.0078-1.0938V9.5361c0-0.3662,0-0.7295-0.0078-1.0918
				c0-0.3066,0-0.6143-0.0039-0.9209c-0.0235-0.6699-0.0625-1.3398-0.1856-2.002c-0.1132-0.6699-0.3125-1.2949-0.6191-1.9033
				c-0.3086-0.5986-0.7051-1.1475-1.1816-1.6211c-0.4727-0.4736-1.0196-0.8721-1.6172-1.1787
				c-0.6153-0.3096-1.2383-0.5098-1.9082-0.627c-0.6582-0.1191-1.3301-0.1602-2-0.1768c-0.3047-0.0049-0.6172-0.0107-0.9219-0.0127
				C132.1453,0,131.7801,0,131.4207,0L131.4207,0z"/>
		</g>
		<g>
			<path d="M8.445,39.125c-0.3047,0-0.6021-0.0039-0.9043-0.0107c-0.5591-0.0157-1.2222-0.0469-1.8692-0.1631
				c-0.6104-0.1104-1.1529-0.2901-1.6568-0.5479c-0.5215-0.2646-0.9903-0.6064-1.397-1.0166
				c-0.4141-0.4062-0.7544-0.873-1.0205-1.3965c-0.2593-0.5048-0.4365-1.0468-0.543-1.6572
				c-0.1221-0.6728-0.1533-1.3555-0.1665-1.875c-0.0063-0.2109-0.0146-0.9131-0.0146-0.9131V8.4443c0,0,0.0088-0.6914,0.0146-0.8945
				c0.0132-0.5239,0.0444-1.206,0.1655-1.8721C1.1602,5.064,1.3374,4.5225,1.5967,4.0156C1.8623,3.4912,2.2032,3.022,2.6119,2.6177
				c0.4136-0.4141,0.8843-0.7568,1.4024-1.0225c0.5137-0.2607,1.0552-0.439,1.6534-0.5439c0.6734-0.1206,1.356-0.1509,1.8755-0.1641
				L8.4455,0.875h124.0544l0.9131,0.0127c0.5127,0.0127,1.1953,0.043,1.8584,0.1626c0.6025,0.1055,1.1475,0.2847,1.6709,0.5479
				c0.5127,0.2627,0.9824,0.6055,1.3916,1.0156c0.4092,0.4062,0.7519,0.8779,1.0234,1.4043
				c0.2578,0.5112,0.4336,1.0527,0.5352,1.6489c0.1162,0.6309,0.1523,1.2788,0.1738,1.8872
				c0.0029,0.2832,0.0029,0.5874,0.0029,0.8901c0.0079,0.375,0.0079,0.7319,0.0079,1.0918v20.9287c0,0.3633,0,0.7178-0.0079,1.0752
				c0,0.3252,0,0.6231-0.0039,0.9297c-0.0205,0.5889-0.0566,1.2364-0.1709,1.8535c-0.1035,0.6133-0.2793,1.1553-0.54,1.67
				c-0.2695,0.5195-0.6123,0.9892-1.0156,1.3857c-0.4131,0.418-0.8819,0.7588-1.3994,1.0225
				c-0.5186,0.2636-1.0479,0.4384-1.668,0.5498c-0.6406,0.1162-1.3037,0.1474-1.8692,0.1631
				c-0.2929,0.0068-0.5996,0.0107-0.8974,0.0107l-1.084,0.002L8.445,39.125z"/>
		</g>
	</g>
	<g>
		<path fill="#FFFFFF" d="M40.689,32.4756l0.0742-0.9141c0.3877,0.126,0.7656,0.168,1.0596,0.168
			c0.3252,0,0.4521-0.0312,0.6094-0.252c0.2832-0.4092,0.4824-1.3115,0.4824-2.582c0-0.9453-0.2939-1.2178-1.0391-1.2178
			c-0.168,0-0.3564,0.0107-0.5674,0.0205c-0.4824,1.8057-1.1758,3.4434-1.9727,4.5986l-0.8721-0.4727
			c0.7666-1.0186,1.3965-2.4463,1.8369-4.0312c-0.5664,0.0635-1.165,0.1572-1.7109,0.2832l-0.1885-0.9238
			c0.6396-0.1152,1.4062-0.2197,2.1201-0.2832c0.1367-0.6826,0.2627-1.3965,0.3262-2.1104l1.0283,0.1162
			c-0.0947,0.6396-0.21,1.2803-0.3564,1.9102h0.4092c1.333,0,1.9736,0.6611,1.9736,2.0684c0,1.4482-0.2627,2.54-0.6094,3.1182
			c-0.2939,0.4824-0.6504,0.6719-1.2598,0.6719C41.5923,32.6436,41.1196,32.5801,40.689,32.4756z M44.0698,26.8164l0.7656-0.5137
			c1.208,1.0596,1.6484,2.5713,1.7959,3.8838l-1.0078,0.1572C45.5181,29.0215,45.1616,27.7725,44.0698,26.8164z"/>
		<path fill="#FFFFFF" d="M50.1177,32.6221l-0.21-0.9443c0.2627,0.0205,0.6094,0.0312,0.8193,0.0312
			c2.0781,0,2.8662-0.5879,2.8662-1.459c0-0.6934-0.4521-1.0918-1.46-1.0918c-0.8818,0-1.8896,0.4932-2.876,1.4062l-0.8086-0.3564
			c0-2.0059,0.21-2.9297,0.8926-3.9375l0.9336,0.3047c-0.6396,0.8506-0.7969,1.6592-0.7969,2.7295
			c0.8604-0.5879,1.9316-0.9766,2.8652-0.9766c1.4072,0,2.2783,0.7246,2.2783,1.9004c0,1.4912-1.1758,2.4043-4,2.4043
			C50.4858,32.6328,50.2856,32.6221,50.1177,32.6221z M49.1421,25.6514l0.2617-0.9238c1.3018,0.1992,3.2021,0.6191,4.126,0.9453
			l-0.252,0.9131C52.4487,26.2705,50.4224,25.8086,49.1421,25.6514z"/>
		<path fill="#FFFFFF" d="M64.5552,32.0342l-0.7979,0.8398c-1.7012-0.9023-2.7715-2.3936-3.4014-4.5771
			c-0.4414,1.543-1.3125,3.4854-3.4961,4.5771l-0.7031-0.7979c2.7188-1.2178,3.2432-3.79,3.4854-5.0811l0.3984,0.0215
			c-0.0625-0.3887-0.1367-0.7979-0.1885-1.2285h-1.9639v-0.9346h2.9082C61.0796,28.7275,62.1821,30.9639,64.5552,32.0342z"/>
		<path fill="#FFFFFF" d="M70.4243,30.0605v1.6064c0,0.9658-0.3467,1.2383-1.3438,1.2383c-0.3359,0-0.7559-0.0098-1.0391-0.0205
			l-0.2207-1.0078c0.2832,0.0312,0.6924,0.042,1.0283,0.042c0.4307,0,0.5781-0.0732,0.5781-0.3994v-1.459h-3.7168v-0.9238h3.7168
			v-1.0918h-2.9707v-0.9023h2.9707v-1.0918c-0.9551,0.1152-1.8896,0.1885-2.709,0.1992l-0.3887-0.9033
			c2.0371,0.0107,4.8711-0.3672,6.3623-0.8398l0.5352,0.8613c-0.7559,0.21-1.7422,0.3984-2.8027,0.5566v1.2178h2.9502v0.9023
			h-2.9502v1.0918h3.6953v0.9238H70.4243z"/>
	</g>
	<g id="XMLID_646_">
		<g>
			<path fill="#FFFFFF" d="M46.3384,16.4746H41.605l-1.1367,3.3564h-2.0049l4.4834-12.4185h2.083l4.4834,12.4185h-2.0391
				L46.3384,16.4746z M42.0952,14.9258h3.752L43.9976,9.478h-0.0518L42.0952,14.9258z"/>
			<path fill="#FFFFFF" d="M59.1958,15.3042c0,2.8657-1.5059,4.6816-3.7783,4.6816c-1.2988,0-2.332-0.6367-2.8477-1.6436h-0.0439
				v4.4829h-1.8584V10.7778h1.7988v1.5576h0.0342c0.5332-1.0415,1.5752-1.7041,2.8828-1.7041
				C57.6812,10.6313,59.1958,12.4385,59.1958,15.3042z M57.2856,15.3042c0-1.8931-0.9209-3.1064-2.3926-3.1064
				c-1.4199,0-2.375,1.2393-2.375,3.1064c0,1.8848,0.9463,3.1069,2.375,3.1069C56.3647,18.4111,57.2856,17.2061,57.2856,15.3042z"/>
			<path fill="#FFFFFF" d="M69.1606,15.3042c0,2.8657-1.5059,4.6816-3.7783,4.6816c-1.2988,0-2.332-0.6367-2.8477-1.6436h-0.0439
				v4.4829h-1.8584V10.7778h1.7988v1.5576h0.0342c0.5332-1.0415,1.5752-1.7041,2.8828-1.7041
				C67.646,10.6313,69.1606,12.4385,69.1606,15.3042z M67.2505,15.3042c0-1.8931-0.9209-3.1064-2.3926-3.1064
				c-1.4199,0-2.375,1.2393-2.375,3.1064c0,1.8848,0.9463,3.1069,2.375,3.1069C66.3296,18.4111,67.2505,17.2061,67.2505,15.3042z"/>
			<path fill="#FFFFFF" d="M70.6655,7.4126h1.8594v12.4185h-1.8594V7.4126z"/>
			<path fill="#FFFFFF" d="M82.2007,17.1719c-0.2588,1.6523-1.8242,2.8311-3.8984,2.8311c-2.6592,0-4.2686-1.7983-4.2686-4.6558
				c0-2.8398,1.6348-4.7329,4.1904-4.7329c2.5137,0,4.0801,1.7725,4.0801,4.5181v0.6367h-6.3945v0.1118
				c0,1.5747,0.9463,2.6162,2.4355,2.6162c1.0586,0,1.8418-0.5337,2.0908-1.3252H82.2007z M75.9185,14.4697h4.5264
				c-0.043-1.3857-0.9209-2.3584-2.2207-2.3584C76.9253,12.1113,76.0132,13.1011,75.9185,14.4697z"/>
			<path fill="#FFFFFF" d="M87.5464,19.8311V7.4126h4.957c2.2031,0,3.6494,1.2222,3.6494,3.0981
				c0,1.3169-0.9727,2.4956-2.2119,2.7021v0.0688c1.6865,0.1895,2.8223,1.3857,2.8223,3.0381c0,2.186-1.5918,3.5112-4.2344,3.5112
				H87.5464z M89.4741,12.6968h2.1602c1.6699,0,2.5908-0.6885,2.5908-1.9189c0-1.1533-0.792-1.79-2.1865-1.79h-2.5645V12.6968z
				 M92.1333,18.2563c1.7383,0,2.6592-0.7144,2.6592-2.0571c0-1.3423-0.9463-2.0308-2.7705-2.0308h-2.5479v4.0879H92.1333z"/>
			<path fill="#FFFFFF" d="M97.8052,15.3042c0-2.9087,1.7119-4.6899,4.2939-4.6899s4.2949,1.7812,4.2949,4.6899
				c0,2.9175-1.7041,4.6987-4.2949,4.6987C99.5093,20.0029,97.8052,18.2217,97.8052,15.3042z M104.5005,15.3042
				c0-2.0049-0.9463-3.1582-2.4014-3.1582c-1.4541,0-2.4004,1.1533-2.4004,3.1582c0,2.0137,0.9463,3.167,2.4004,3.167
				C103.562,18.4712,104.5005,17.3179,104.5005,15.3042z"/>
			<path fill="#FFFFFF" d="M107.4341,15.3042c0-2.9087,1.7119-4.6899,4.2939-4.6899c2.5815,0,4.2944,1.7812,4.2944,4.6899
				c0,2.9175-1.7041,4.6987-4.2944,4.6987C109.1382,20.0029,107.4341,18.2217,107.4341,15.3042z M114.1289,15.3042
				c0-2.0049-0.9463-3.1582-2.4009-3.1582c-1.4541,0-2.4004,1.1533-2.4004,3.1582c0,2.0137,0.9463,3.167,2.4004,3.167
				C113.1904,18.4712,114.1289,17.3179,114.1289,15.3042z"/>
			<path fill="#FFFFFF" d="M123.0693,10.7778h2.1855l-3.752,3.8984l3.8984,5.1548h-2.1602l-3.0723-4.019l-0.7744,0.7661v3.2529
				h-1.8594V7.4126h1.8594v7.2461h0.0176L123.0693,10.7778z"/>
			<path fill="#FFFFFF" d="M129.4092,10.6143c2.1084,0,3.4775,1.1704,3.5371,2.8398h-1.7471
				c-0.1025-0.8779-0.748-1.4287-1.79-1.4287c-1.0068,0-1.6777,0.4907-1.6777,1.2134c0,0.5684,0.4131,0.9556,1.3945,1.1792
				l1.4707,0.3354c1.8506,0.4307,2.5566,1.1533,2.5566,2.4614c0,1.6523-1.541,2.7881-3.6748,2.7881
				c-2.2637,0-3.623-1.1099-3.7949-2.8311h1.8408c0.1729,0.9468,0.8184,1.4111,1.9541,1.4111c1.1182,0,1.8076-0.4644,1.8076-1.2046
				c0-0.5854-0.3359-0.9297-1.3262-1.1533l-1.4717-0.3442c-1.7207-0.396-2.5732-1.2222-2.5732-2.5386
				C125.915,11.7241,127.3271,10.6143,129.4092,10.6143z"/>
		</g>
	</g>
	<g>
		<g id="_x38_x_x5F_iOS11-iBooks-Icon_x5F_US-EN_x5F_00-0013-932_x5F_v1_x5F_w_x5F_RGB_x5F_R3_41_">
			<linearGradient id="SVGID_1_" gradientUnits="userSpaceOnUse" x1="20.0983" y1="7.4182" x2="20.0983" y2="32.5814">
				<stop  offset="0" style="stop-color:#FFA80B"/>
				<stop  offset="1" style="stop-color:#F27218"/>
			</linearGradient>
			<path fill="url(#SVGID_1_)" d="M32.6799,15.2896c0-0.3005,0.0001-0.6011-0.0017-0.9016
				c-0.0015-0.2532-0.0045-0.5063-0.0113-0.7594c-0.0149-0.5513-0.0474-1.1074-0.1453-1.6525
				c-0.0995-0.5536-0.2618-1.0688-0.5179-1.5717c-0.2515-0.494-0.58-0.946-0.972-1.338c-0.392-0.392-0.8441-0.7206-1.3382-0.9721
				c-0.5027-0.2559-1.0176-0.4182-1.5709-0.5177c-0.5454-0.098-1.1017-0.1305-1.6531-0.1454
				c-0.2531-0.0068-0.5062-0.0098-0.7594-0.0113c-0.3005-0.0018-0.6011-0.0017-0.9016-0.0017h-9.4204
				c-0.3005,0-0.6011-0.0001-0.9016,0.0017c-0.2532,0.0015-0.5063,0.0045-0.7594,0.0113c-0.5515,0.0149-1.1078,0.0474-1.6531,0.1454
				c-0.5533,0.0994-1.0682,0.2618-1.5709,0.5177C10.009,8.3458,9.5569,8.6744,9.1649,9.0664c-0.3919,0.392-0.7205,0.844-0.972,1.338
				c-0.256,0.5029-0.4184,1.0181-0.5179,1.5717c-0.0979,0.5452-0.1304,1.1013-0.1453,1.6525
				C7.5229,13.8817,7.52,14.1348,7.5184,14.388c-0.0018,0.3005-0.0017,0.6011-0.0017,0.9016V24.71
				c0,0.3005-0.0001,0.6011,0.0017,0.9016c0.0015,0.2532,0.0045,0.5063,0.0113,0.7593c0.0149,0.5513,0.0474,1.1074,0.1453,1.6525
				c0.0995,0.5536,0.2618,1.0688,0.5179,1.5717c0.2515,0.494,0.58,0.946,0.972,1.338c0.392,0.392,0.8441,0.7206,1.3382,0.9721
				c0.5027,0.2559,1.0176,0.4182,1.5709,0.5177c0.5454,0.098,1.1017,0.1305,1.6531,0.1454
				c0.2531,0.0068,0.5062,0.0098,0.7594,0.0113c0.3005,0.0018,0.6011,0.0017,0.9016,0.0017h9.4204
				c0.3005,0,0.6011,0.0001,0.9016-0.0017c0.2532-0.0015,0.5063-0.0045,0.7594-0.0113c0.5515-0.0149,1.1078-0.0474,1.6531-0.1454
				c0.5533-0.0994,1.0682-0.2618,1.5709-0.5177c0.4941-0.2515,0.9462-0.5801,1.3382-0.9721c0.392-0.392,0.7205-0.844,0.972-1.338
				c0.2561-0.5029,0.4184-1.0181,0.5179-1.5717c0.0979-0.5452,0.1304-1.1013,0.1453-1.6525
				c0.0068-0.2531,0.0098-0.5062,0.0113-0.7593c0.0018-0.3005,0.0017-0.6011,0.0017-0.9016V15.2896z"/>
			<path fill="#FFFFFF" d="M19.1697,14.506c0.4133,0.6318,0.6666,0.8194,0.6666,2.6598c0,2.2707,0,7.9318,0,10.2024
				c0,0.4219-0.0004-1.0071-1.4626-2.0895c-1.4979-1.1574-4.0606-1.2347-6.1535,0.284c-0.3857,0.2854-0.6668,0.2328-0.6668-0.1891
				c0.0002-2.2707-0.0002-7.6308,0-9.9015c0-0.4219,0.0418-0.8816,0.6668-1.3391C14.3128,12.6143,17.5315,12.588,19.1697,14.506z
				 M28.6433,15.472c0-0.4219-0.0418-0.8816-0.6668-1.3391c-2.0927-1.5186-5.3114-1.5449-6.9496,0.3731
				c-0.4133,0.6318-0.6666,0.8194-0.6666,2.6598c0,2.2707,0,7.9318,0,10.2024c0,0.4219,0.0004-1.0071,1.4626-2.0895
				c1.4979-1.1574,4.0607-1.2347,6.1535,0.284c0.3857,0.2854,0.6668,0.2328,0.6668-0.1891
				C28.6431,23.1028,28.6435,17.7427,28.6433,15.472z"/>
		</g>
	</g>
</g>
</svg>
